<svg width="172" height="82" viewBox="0 0 172 82" fill="none" xmlns="http://www.w3.org/2000/svg">
<path d="M36.6943 44.3346C36.6943 50.9064 35.3582 56.7566 33.2918 60.8895C31.1652 65.1426 28.5993 67.0078 26.363 67.0078C24.1268 67.0078 21.5609 65.1426 19.4343 60.8895C17.3679 56.7566 16.0317 50.9064 16.0317 44.3346C16.0317 37.7628 17.3679 31.9126 19.4343 27.7797C21.5609 23.5265 24.1268 21.6614 26.363 21.6614C28.5993 21.6614 31.1652 23.5265 33.2918 27.7797C35.3582 31.9126 36.6943 37.7628 36.6943 44.3346Z" stroke="#F5EAE5" stroke-width="4.02116"/>
<path d="M57.8519 44.3346C57.8519 50.9064 56.5157 56.7566 54.4493 60.8895C52.3227 65.1426 49.7569 67.0078 47.5206 67.0078C45.2843 67.0078 42.7184 65.1426 40.5919 60.8895C38.5254 56.7566 37.1893 50.9064 37.1893 44.3346C37.1893 37.7628 38.5254 31.9126 40.5919 27.7797C42.7184 23.5265 45.2843 21.6614 47.5206 21.6614C49.7569 21.6614 52.3227 23.5265 54.4493 27.7797C56.5157 31.9126 57.8519 37.7628 57.8519 44.3346Z" stroke="#F5EAE5" stroke-width="4.02116"/>
<path fill-rule="evenodd" clip-rule="evenodd" d="M36.9418 34.1271C35.6071 36.7362 33.5778 39.5136 30.9843 42.1071C29.9105 43.1809 28.8051 44.1581 27.6931 45.0292C28.8051 45.9004 29.9105 46.8775 30.9843 47.9513C33.5778 50.5448 35.6071 53.3223 36.9418 55.9313C38.2765 53.3223 40.3058 50.5448 42.8993 47.9513C43.9731 46.8775 45.0785 45.9004 46.1905 45.0292C45.0785 44.1581 43.9731 43.1809 42.8993 42.1071C40.3058 39.5136 38.2765 36.7362 36.9418 34.1271ZM38.0531 66.6782L38.0165 66.6417C38.0352 66.6474 38.0539 66.6531 38.0728 66.6586L38.0531 66.6782Z" fill="#F5EAE5"/>
<path d="M73.3397 36.081H79.5787L88.2117 65.6931H83.3109L81.3506 58.3042H71.8506L70.0033 65.6931H65.1214L73.3397 36.081ZM80.3704 54.6663L76.7514 41.0195H76.2047L72.7742 54.6663H80.3704ZM89.5522 33.4421H94.0572V65.6931H89.5522V33.4421ZM96.5664 59.8876C96.5664 57.5754 97.3643 55.8161 98.9602 54.6098C100.569 53.3909 102.931 52.7814 106.048 52.7814H108.762V51.6128C108.762 50.9216 108.68 50.3184 108.517 49.8032C108.366 49.2755 108.115 48.8356 107.763 48.4838C107.424 48.1319 106.971 47.868 106.406 47.6921C105.853 47.5036 105.174 47.4094 104.37 47.4094C103.817 47.4094 103.296 47.4534 102.805 47.5413C102.315 47.6293 101.832 47.7487 101.354 47.8995C100.877 48.0503 100.387 48.2325 99.8839 48.4461C99.3938 48.6597 98.8723 48.8859 98.3194 49.1247V45.3737C98.8095 45.1349 99.3121 44.9213 99.8273 44.7328C100.343 44.5443 100.889 44.3872 101.467 44.2616C102.045 44.1233 102.661 44.0228 103.314 43.96C103.968 43.8971 104.678 43.8657 105.444 43.8657C108.096 43.8657 110.069 44.538 111.363 45.8826C112.67 47.2272 113.323 49.1875 113.323 51.7636V60.7923C113.323 61.2573 113.323 61.6908 113.323 62.0929C113.323 62.495 113.336 62.8909 113.361 63.2804C113.399 63.67 113.455 64.0658 113.531 64.4679C113.606 64.8575 113.719 65.2659 113.87 65.6931H109.214C109.089 65.3538 108.994 64.9894 108.931 64.5999C108.869 64.2103 108.825 63.8145 108.8 63.4124C108.134 64.2417 107.323 64.9014 106.368 65.3915C105.426 65.8816 104.32 66.1266 103.051 66.1266C102.07 66.1266 101.178 65.957 100.374 65.6177C99.5823 65.2784 98.9037 64.8261 98.3382 64.2606C97.7727 63.6825 97.3329 63.0165 97.0188 62.2626C96.7172 61.5086 96.5664 60.7169 96.5664 59.8876ZM101.184 59.2655C101.184 59.6802 101.247 60.0886 101.373 60.4907C101.499 60.8803 101.693 61.2321 101.957 61.5463C102.234 61.8604 102.586 62.1118 103.013 62.3003C103.44 62.4888 103.955 62.583 104.558 62.583C105.325 62.583 106.073 62.4259 106.802 62.1118C107.53 61.7976 108.184 61.3201 108.762 60.6792V55.8538H106.217C105.275 55.8538 104.483 55.9355 103.842 56.0989C103.201 56.2622 102.68 56.4947 102.278 56.7963C101.888 57.0979 101.605 57.4623 101.429 57.8895C101.266 58.3042 101.184 58.7629 101.184 59.2655ZM117.906 47.6356H115.701V44.2993H117.906V40.1147C117.906 39.0843 118.05 38.1481 118.339 37.3062C118.629 36.4517 119.056 35.7229 119.621 35.1197C120.199 34.5165 120.916 34.0516 121.77 33.7249C122.625 33.3856 123.617 33.2159 124.748 33.2159C125.037 33.2159 125.333 33.2285 125.634 33.2536C125.948 33.2788 126.193 33.3102 126.369 33.3479V37.0046C125.955 36.8161 125.515 36.7219 125.05 36.7219C124.208 36.7219 123.561 36.9732 123.108 37.4759C122.656 37.9659 122.43 38.6634 122.43 39.5681V44.2993H125.879V47.6356H122.43V65.6931H117.906V47.6356ZM130.556 39.587C130.104 39.587 129.695 39.5178 129.331 39.3796C128.966 39.2414 128.652 39.0466 128.388 38.7953C128.124 38.544 127.923 38.2424 127.785 37.8905C127.647 37.5387 127.578 37.1491 127.578 36.7219C127.578 36.2946 127.647 35.9114 127.785 35.5721C127.923 35.2202 128.124 34.9186 128.388 34.6673C128.652 34.416 128.966 34.2212 129.331 34.083C129.695 33.9448 130.104 33.8757 130.556 33.8757C131.486 33.8757 132.221 34.1395 132.761 34.6673C133.314 35.1825 133.591 35.8674 133.591 36.7219C133.591 37.5764 133.314 38.2675 132.761 38.7953C132.221 39.3231 131.486 39.587 130.556 39.587ZM128.294 44.2993H132.818V65.6931H128.294V44.2993ZM135.534 59.8876C135.534 57.5754 136.332 55.8161 137.928 54.6098C139.537 53.3909 141.899 52.7814 145.016 52.7814H147.73V51.6128C147.73 50.9216 147.648 50.3184 147.485 49.8032C147.334 49.2755 147.083 48.8356 146.731 48.4838C146.392 48.1319 145.939 47.868 145.374 47.6921C144.821 47.5036 144.142 47.4094 143.338 47.4094C142.785 47.4094 142.264 47.4534 141.774 47.5413C141.284 47.6293 140.8 47.7487 140.322 47.8995C139.845 48.0503 139.355 48.2325 138.852 48.4461C138.362 48.6597 137.84 48.8859 137.287 49.1247V45.3737C137.778 45.1349 138.28 44.9213 138.795 44.7328C139.311 44.5443 139.857 44.3872 140.435 44.2616C141.013 44.1233 141.629 44.0228 142.283 43.96C142.936 43.8971 143.646 43.8657 144.412 43.8657C147.064 43.8657 149.037 44.538 150.331 45.8826C151.638 47.2272 152.291 49.1875 152.291 51.7636V60.7923C152.291 61.2573 152.291 61.6908 152.291 62.0929C152.291 62.495 152.304 62.8909 152.329 63.2804C152.367 63.67 152.423 64.0658 152.499 64.4679C152.574 64.8575 152.687 65.2659 152.838 65.6931H148.182C148.057 65.3538 147.962 64.9894 147.9 64.5999C147.837 64.2103 147.793 63.8145 147.768 63.4124C147.102 64.2417 146.291 64.9014 145.336 65.3915C144.394 65.8816 143.288 66.1266 142.019 66.1266C141.038 66.1266 140.146 65.957 139.342 65.6177C138.55 65.2784 137.872 64.8261 137.306 64.2606C136.741 63.6825 136.301 63.0165 135.987 62.2626C135.685 61.5086 135.534 60.7169 135.534 59.8876ZM140.153 59.2655C140.153 59.6802 140.215 60.0886 140.341 60.4907C140.467 60.8803 140.661 61.2321 140.925 61.5463C141.202 61.8604 141.554 62.1118 141.981 62.3003C142.408 62.4888 142.923 62.583 143.527 62.583C144.293 62.583 145.041 62.4259 145.77 62.1118C146.498 61.7976 147.152 61.3201 147.73 60.6792V55.8538H145.185C144.243 55.8538 143.451 55.9355 142.81 56.0989C142.169 56.2622 141.648 56.4947 141.246 56.7963C140.856 57.0979 140.574 57.4623 140.398 57.8895C140.234 58.3042 140.153 58.7629 140.153 59.2655Z" fill="#F5EAE5"/>
</svg>
